<svg version="1.1" id="Слой_1" xmlns="http://www.w3.org/2000/svg" x="0" y="0" viewBox="0 0 1432 1080" style="enable-background:new 0 0 1432 1080" xml:space="preserve"><style>.st0{fill:#d62116}</style><path class="st0" d="M1236.6 439.2v201.5c0 242.4-197.3 439.2-439.7 439.2H329.8V860.4H797c121.2 0 219.8-98.6 219.8-219.6V439.2c0-121.1-98.7-219.6-219.8-219.6H219.8v176.8L0 577.3V0h796.9c242.4 0 439.7 197.1 439.7 439.2z"/><path class="st0" d="M1432 1080h-345.4L538.3 628.7c-20.3-16.7-49.7-16.7-70.1 0L219.8 833.2V1080H0V729.4L328.7 459c101.1-83.2 248.1-83.2 349.3.3l754 620.7z"/></svg>